<?xml version="1.0" encoding="UTF-8"?>
<svg width="416px" height="494px" viewBox="0 0 416 494" version="1.1" xmlns="http://www.w3.org/2000/svg" xmlns:xlink="http://www.w3.org/1999/xlink">
    <!-- Generator: Sketch 50.2 (55047) - http://www.bohemiancoding.com/sketch -->
    <title>Slice 1</title>
    <desc>Created with Sketch.</desc>
    <defs></defs>
    <g id="Page-1" stroke="none" stroke-width="1" fill="none" fill-rule="evenodd">
        <g id="fire-over-line" transform="translate(9.000000, 9.000000)" fill-rule="nonzero" stroke="#FFFFFF" stroke-width="18">
            <path d="M0.296,277.792 C0.296,214.792 30.296,159.092 76.196,122.392 C85.996,115.692 93.296,122.392 90.296,127.292 C58.496,201.992 81.696,275.392 135.596,290.092 C119.696,252.192 112.296,209.292 117.196,165.292 C124.496,100.392 156.396,44.692 202.296,5.592 C206.596,1.892 210.896,-0.508 213.896,0.092 C216.997,0.692 218.796,2.492 217.596,6.792 C213.896,19.692 211.496,33.092 210.296,46.592 C204.196,101.092 216.396,152.492 241.496,196.492 C279.395,196.492 295.395,152.392 299.596,121.792 C299.596,114.492 305.096,109.592 316.096,118.092 C365.096,154.192 397.496,211.692 397.496,277.193 C397.496,386.693 308.796,475.493 198.596,475.493 C89.096,476.092 0.296,387.292 0.296,277.792 Z" id="Shape"></path>
        </g>
    </g>
</svg>