<?xml version="1.0" encoding="UTF-8"?>
<svg width="341px" height="341px" viewBox="0 0 341 341" version="1.1" xmlns="http://www.w3.org/2000/svg" xmlns:xlink="http://www.w3.org/1999/xlink">
    <!-- Generator: Sketch 50.2 (55047) - http://www.bohemiancoding.com/sketch -->
    <title>Slice 1</title>
    <desc>Created with Sketch.</desc>
    <defs></defs>
    <g id="Page-1" stroke="none" stroke-width="1" fill="none" fill-rule="evenodd">
        <g id="plus-(2)-copy" transform="translate(170.461508, 170.461508) rotate(45.000000) translate(-170.461508, -170.461508) translate(-66.038492, -66.038492)" fill="#578ACF" fill-rule="nonzero">
            <path d="M462.766,226.46 L246.153,226.46 L246.153,9.846 C246.153,4.408 241.744,0 236.307,0 C230.869,0 226.461,4.408 226.461,9.846 L226.461,226.46 L9.846,226.46 C4.408,226.46 0,230.868 0,236.306 C0,241.744 4.408,246.152 9.846,246.152 L226.46,246.152 L226.46,462.766 C226.46,468.204 230.868,472.612 236.306,472.612 C241.744,472.612 246.152,468.203 246.152,462.766 L246.152,246.152 L462.765,246.152 C468.203,246.152 472.611,241.744 472.611,236.306 C472.611,230.868 468.204,226.46 462.766,226.46 Z" id="Shape"></path>
        </g>
    </g>
</svg>