<?xml version="1.0" encoding="UTF-8"?>
<svg width="568px" height="568px" viewBox="0 0 568 568" version="1.1" xmlns="http://www.w3.org/2000/svg" xmlns:xlink="http://www.w3.org/1999/xlink">
    <!-- Generator: Sketch 50.2 (55047) - http://www.bohemiancoding.com/sketch -->
    <title>Slice 1</title>
    <desc>Created with Sketch.</desc>
    <defs></defs>
    <g id="Page-1" stroke="none" stroke-width="1" fill="none" fill-rule="evenodd">
        <g id="big" transform="translate(283.549819, 283.549819) rotate(-45.000000) translate(-283.549819, -283.549819) translate(27.049819, 139.049819)" fill="#000000" fill-rule="nonzero">
            <path d="M506.958,4.339 C500.51,-1.709 490.366,-1.389 484.334,5.075 L256.014,248.611 L27.678,5.059 C21.646,-1.389 11.518,-1.709 5.054,4.323 C-1.394,10.371 -1.714,20.499 4.334,26.931 L244.334,282.931 C244.462,283.059 244.622,283.107 244.75,283.219 C244.878,283.347 244.926,283.539 245.07,283.667 C246.03,284.563 247.182,285.075 248.286,285.683 C248.878,286.019 249.374,286.515 249.998,286.771 C251.934,287.571 253.966,288.003 256.014,288.003 C258.062,288.003 260.094,287.571 262.03,286.787 C262.654,286.531 263.15,286.035 263.742,285.699 C264.846,285.075 265.998,284.579 266.958,283.683 C267.102,283.555 267.15,283.363 267.278,283.235 C267.406,283.107 267.566,283.075 267.678,282.947 L507.678,26.947 C513.726,20.515 513.39,10.387 506.958,4.339 Z" id="Shape"></path>
        </g>
    </g>
</svg>