<?xml version="1.0" encoding="UTF-8"?>
<svg width="512px" height="376px" viewBox="0 0 512 376" version="1.1" xmlns="http://www.w3.org/2000/svg" xmlns:xlink="http://www.w3.org/1999/xlink">
    <!-- Generator: Sketch 50.2 (55047) - http://www.bohemiancoding.com/sketch -->
    <title>Slice 1</title>
    <desc>Created with Sketch.</desc>
    <defs></defs>
    <g id="Page-1" stroke="none" stroke-width="1" fill="none" fill-rule="evenodd">
        <g id="right-arrow-(1)-copy" transform="translate(256.000000, 188.000000) rotate(180.000000) translate(-256.000000, -188.000000) " fill="#000000" fill-rule="nonzero">
            <path d="M511.352,184.778 C511.139,184.254 510.766,183.84 510.457,183.374 C510.18,182.953 510.009,182.484 509.65,182.107 L338.983,2.907 C335.716,-0.514 330.316,-0.635 326.916,2.611 C323.499,5.861 323.366,11.261 326.616,14.673 L483.556,179.456 L8.533,179.456 C3.816,179.456 0,183.277 0,187.989 C0,192.701 3.817,196.522 8.533,196.522 L483.556,196.522 L326.616,361.305 C323.366,364.717 323.499,370.118 326.916,373.368 C328.566,374.943 330.683,375.722 332.799,375.722 C335.049,375.722 337.299,374.835 338.982,373.072 L509.649,193.872 C510.008,193.494 510.18,193.026 510.456,192.605 C510.765,192.139 511.137,191.725 511.351,191.201 C512.19,189.142 512.19,186.838 511.352,184.778 Z" id="Shape"></path>
        </g>
    </g>
</svg>