<?xml version="1.0" encoding="UTF-8"?>
<svg width="517px" height="500px" viewBox="0 0 517 500" version="1.1" xmlns="http://www.w3.org/2000/svg" xmlns:xlink="http://www.w3.org/1999/xlink">
    <!-- Generator: Sketch 50.2 (55047) - http://www.bohemiancoding.com/sketch -->
    <title>Slice 1</title>
    <desc>Created with Sketch.</desc>
    <defs></defs>
    <g id="Page-1" stroke="none" stroke-width="1" fill="none" fill-rule="evenodd">
        <g id="spinner-circle" fill="#FFFFFF" fill-rule="nonzero">
            <path d="M517,258.32989 C516.334649,223.513208 508.77466,188.8065 494.813295,157.071081 C480.897953,125.30767 460.701298,96.5345437 435.906216,72.758224 C411.126143,48.9639086 381.738639,30.1534025 349.931858,17.7443671 C318.142086,5.28734314 283.960053,-0.663235241 250.192237,0.0585923112 C216.419419,0.726432761 182.796681,8.06367986 152.049459,21.5924478 C121.279225,35.0772262 93.4035187,54.6425519 70.3743689,78.6498165 C47.3292108,102.645084 29.1236058,131.089288 17.1242752,161.858937 C5.07992085,192.61159 -0.660107475,225.654696 0.0602725834,258.32989 C0.730626249,291.010083 7.85738619,323.496322 20.9743064,353.206224 C34.048204,382.937121 53.0102079,409.873686 76.2694791,432.118371 C99.5157434,454.381053 127.062276,471.954854 156.839987,483.52309 C186.60469,495.136316 218.56255,500.654997 250.192237,499.938169 C281.828928,499.267329 313.226493,492.359979 341.947646,479.67501 C370.686808,467.03203 396.723544,448.703409 418.218885,426.226779 C439.733236,403.763145 456.700187,377.158501 467.856073,348.418368 C474.649657,330.99553 479.258088,312.802876 481.68737,294.36928 C482.336712,294.406271 482.990057,294.432265 483.648404,294.432265 C502.067122,294.432265 516.998999,279.512829 516.998999,261.107227 C516.998999,260.17145 516.949974,259.246671 516.874934,258.33089 L517,258.32989 Z M464.007042,346.822749 C451.774588,374.52613 434.051238,399.622135 412.324775,420.337186 C390.610319,441.064234 364.903757,457.40433 337.158119,468.132767 C309.419485,478.900195 279.684797,483.987979 250.193238,483.27515 C220.696676,482.598311 191.518282,476.122858 164.825199,464.282687 C138.11911,452.479507 113.921343,435.38859 93.9578111,414.445593 C73.9792708,393.512594 58.2479713,368.745511 47.9325291,342.035892 C37.5780662,315.330272 32.7014935,286.728106 33.4128688,258.327891 C34.0912267,229.921677 40.3575326,201.876377 51.7835608,176.216507 C63.1735699,150.54564 79.6612685,127.285197 99.8539218,108.10278 C120.03657,88.9053664 143.903161,73.8039742 169.616727,63.9183359 C195.327292,53.9927072 222.839807,49.33482 250.193238,50.0446504 C277.550671,50.724488 304.507893,56.7710434 329.173907,67.7664166 C353.848925,78.7267981 376.20672,94.5840097 394.637444,113.996372 C413.083175,133.396737 427.576822,156.327259 437.05082,181.005363 C446.559837,205.683468 451.006183,232.065165 450.29881,258.32889 L450.423876,258.32889 C450.347836,259.244672 450.29881,260.169451 450.29881,261.105227 C450.29881,278.294121 463.323681,292.437742 480.046504,294.234312 C476.802793,312.36798 471.43296,330.069751 464.007042,346.822749 Z" id="Shape"></path>
        </g>
    </g>
</svg>