<?xml version="1.0" encoding="UTF-8"?>
<svg width="311px" height="232px" viewBox="0 0 311 232" version="1.1" xmlns="http://www.w3.org/2000/svg" xmlns:xlink="http://www.w3.org/1999/xlink">
    <!-- Generator: Sketch 50.2 (55047) - http://www.bohemiancoding.com/sketch -->
    <title>Slice 1</title>
    <desc>Created with Sketch.</desc>
    <defs></defs>
    <g id="Page-1" stroke="none" stroke-width="1" fill="none" fill-rule="evenodd">
        <g id="email" fill="#000000" fill-rule="nonzero">
            <g id="mail">
                <path d="M285.92906,232 L25.0709403,232 C11.251838,232 0,220.203747 0,205.692566 L0,26.3074341 C0,11.7962535 11.251838,0 25.0709403,0 L285.92906,0 C299.748162,0 311,11.7962535 311,26.3074341 L311,205.692566 C311,220.203747 299.748162,232 285.92906,232 Z M25.0709403,10.5229736 C16.7774732,10.5229736 10.0283761,17.6049349 10.0283761,26.3074341 L10.0283761,205.692566 C10.0283761,214.395065 16.7774732,221.477026 25.0709403,221.477026 L285.92906,221.477026 C294.222527,221.477026 300.971624,214.395065 300.971624,205.692566 L300.971624,26.3074341 C300.971624,17.6049349 294.222527,10.5229736 285.92906,10.5229736 L25.0709403,10.5229736 Z" id="Shape"></path>
                <path d="M155.565591,149 C150.300014,149 145.034437,147.143763 141.027848,143.439687 L39.3586636,49.3595334 C37.7116862,47.8392667 37.5374866,45.1850993 38.9706737,43.4296532 C40.4196972,41.6826063 42.9139178,41.5230203 44.5608952,43.0264885 L146.230079,137.098243 C151.289784,141.776633 159.841398,141.776633 164.893184,137.098243 L266.435678,43.1776753 C268.074737,41.6574085 270.568958,41.8253938 272.025899,43.5808399 C273.459086,45.336286 273.292805,47.9820541 271.645827,49.5107202 L170.103334,143.431288 C166.088826,147.143763 160.831168,149 155.565591,149 Z" id="Shape"></path>
            </g>
        </g>
    </g>
</svg>