<?xml version="1.0" encoding="UTF-8"?>
<svg width="311px" height="232px" viewBox="0 0 311 232" version="1.1" xmlns="http://www.w3.org/2000/svg" xmlns:xlink="http://www.w3.org/1999/xlink">
    <!-- Generator: Sketch 50.2 (55047) - http://www.bohemiancoding.com/sketch -->
    <title>Slice 1</title>
    <desc>Created with Sketch.</desc>
    <defs></defs>
    <g id="Page-1" stroke="none" stroke-width="1" fill="none" fill-rule="evenodd">
        <g id="padlock-(3)" transform="translate(71.000000, 0.000000)" fill="#000000" fill-rule="nonzero">
            <path d="M149.795772,107.332974 L149.795772,65.1662399 C149.795772,29.2328531 120.505115,0 84.5002251,0 C48.4953351,0 19.2046784,29.2328531 19.2046784,65.1666891 L19.2046784,107.333423 C8.61593163,107.333423 0,115.932352 0,126.500202 L0,210.833221 C0,221.401071 8.61593163,230 19.2046784,230 L149.795322,230 C160.384068,230 169,221.401071 169,210.833221 L169,126.499753 C169,115.931902 160.384518,107.332974 149.795772,107.332974 Z M26.8866398,65.1666891 C26.8866398,33.4613409 52.7321842,7.66680143 84.5002251,7.66680143 C116.268266,7.66680143 142.11381,33.4613409 142.11381,65.1666891 L142.11381,107.333423 L130.591093,107.333423 L130.591093,65.1666891 C130.591093,39.8029496 109.914118,19.166779 84.5002251,19.166779 C59.0863325,19.166779 38.4093569,39.8029496 38.4093569,65.1666891 L38.4093569,107.333423 L26.8866398,107.333423 L26.8866398,65.1666891 Z M122.909132,65.1666891 L122.909132,107.333423 L46.0913183,107.333423 L46.0913183,65.1666891 C46.0913183,44.0291913 63.320931,26.8335804 84.5002251,26.8335804 C105.679519,26.8331312 122.909132,44.0291913 122.909132,65.1666891 Z M161.318489,210.832772 C161.318489,217.174381 156.14992,222.332749 149.795772,222.332749 L19.2046784,222.332749 C12.8505301,222.332749 7.6819614,217.174381 7.6819614,210.832772 L7.6819614,126.499753 C7.6819614,120.158144 12.8505301,114.999775 19.2046784,114.999775 L23.0454341,114.999775 L42.2501125,114.999775 L126.749887,114.999775 L145.954566,114.999775 L149.795322,114.999775 C156.14947,114.999775 161.318039,120.158144 161.318039,126.499753 L161.318039,210.832772 L161.318489,210.832772 Z" id="Shape"></path>
            <path d="M83.5,139 C73.2997867,139 65,147.55217 65,158.062556 C65,164.086425 67.7875524,169.738131 72.4000867,173.299376 L72.4000867,188.562556 C72.4000867,194.869681 77.3790049,200 83.5,200 C89.6209951,200 94.5999133,194.869681 94.5999133,188.562556 L94.5999133,173.299376 C99.212014,169.738131 102,164.086425 102,158.062556 C102,147.55217 93.7002133,139 83.5,139 Z M89.0551597,167.947456 C87.9078796,168.628788 87.1998266,169.889141 87.1998266,171.253593 L87.1998266,188.562556 C87.1998266,190.664186 85.5396091,192.374888 83.5,192.374888 C81.4603909,192.374888 79.8001734,190.664186 79.8001734,188.562556 L79.8001734,171.253593 C79.8001734,169.889141 79.0921204,168.628788 77.9448403,167.947456 C74.5246795,165.922225 72.4000867,162.135805 72.4000867,158.062556 C72.4000867,151.755431 77.3790049,146.625112 83.5,146.625112 C89.6209951,146.625112 94.5999133,151.755431 94.5999133,158.062556 C94.5999133,162.135358 92.4753205,165.921778 89.0551597,167.947456 Z" id="Shape"></path>
        </g>
    </g>
</svg>