<?xml version="1.0" encoding="UTF-8"?>
<svg width="420px" height="307px" viewBox="0 0 420 307" version="1.1" xmlns="http://www.w3.org/2000/svg" xmlns:xlink="http://www.w3.org/1999/xlink">
    <!-- Generator: Sketch 50.2 (55047) - http://www.bohemiancoding.com/sketch -->
    <title>Slice 1</title>
    <desc>Created with Sketch.</desc>
    <defs></defs>
    <g id="Page-1" stroke="none" stroke-width="1" fill="none" fill-rule="evenodd">
        <g id="padlock-(3)" transform="translate(97.000000, 0.000000)" fill="#FFFFFF" fill-rule="nonzero">
            <path d="M200.318606,143.266187 L200.318606,86.9827637 C200.318606,39.0195039 161.148852,0 113.000301,0 C64.85175,0 25.681996,39.0195039 25.681996,86.9833633 L25.681996,143.266787 C11.5218967,143.266787 0,154.744487 0,168.85027 L0,281.416517 C0,295.5223 11.5218967,307 25.681996,307 L200.318004,307 C214.478103,307 226,295.5223 226,281.416517 L226,168.84967 C226,154.743887 214.478705,143.266187 200.318606,143.266187 Z M35.9549148,86.9833633 C35.9549148,44.6636159 70.5175954,10.2335132 113.000301,10.2335132 C155.483006,10.2335132 190.045687,44.6636159 190.045687,86.9833633 L190.045687,143.266787 L174.63661,143.266787 L174.63661,86.9833633 C174.63661,53.1282849 146.985743,25.5834832 113.000301,25.5834832 C79.0148588,25.5834832 51.363992,53.1282849 51.363992,86.9833633 L51.363992,143.266787 L35.9549148,143.266787 L35.9549148,86.9833633 Z M164.363691,86.9833633 L164.363691,143.266787 L61.6369108,143.266787 L61.6369108,86.9833633 C61.6369108,58.7693989 84.6776947,35.8169965 113.000301,35.8169965 C141.322907,35.8163968 164.363691,58.7693989 164.363691,86.9833633 Z M215.727683,281.415917 C215.727683,289.880586 208.815869,296.765887 200.318606,296.765887 L25.681996,296.765887 C17.1847326,296.765887 10.2729188,289.880586 10.2729188,281.415917 L10.2729188,168.84967 C10.2729188,160.385001 17.1847326,153.4997 25.681996,153.4997 L30.8181545,153.4997 L56.5001505,153.4997 L169.49985,153.4997 L195.181846,153.4997 L200.318004,153.4997 C208.815267,153.4997 215.727081,160.385001 215.727081,168.84967 L215.727081,281.415917 L215.727683,281.415917 Z" id="Shape"></path>
            <path d="M112,185 C98.215928,185 87,196.35616 87,210.312574 C87,218.311483 90.7669628,225.816207 97.0001172,230.545073 L97.0001172,250.812574 C97.0001172,259.187609 103.728385,266 112,266 C120.271615,266 126.999883,259.187609 126.999883,250.812574 L126.999883,230.545073 C133.232451,225.816207 137,218.311483 137,210.312574 C137,196.35616 125.784072,185 112,185 Z M119.506973,223.438426 C117.956594,224.343145 116.999766,226.016728 116.999766,227.828541 L116.999766,250.812574 C116.999766,253.603264 114.756228,255.874852 112,255.874852 C109.243772,255.874852 107.000234,253.603264 107.000234,250.812574 L107.000234,227.828541 C107.000234,226.016728 106.043406,224.343145 104.493027,223.438426 C99.8711885,220.749183 97.0001172,215.721315 97.0001172,210.312574 C97.0001172,201.937539 103.728385,195.125148 112,195.125148 C120.271615,195.125148 126.999883,201.937539 126.999883,210.312574 C126.999883,215.720722 124.128811,220.74859 119.506973,223.438426 Z" id="Shape"></path>
        </g>
    </g>
</svg>