<?xml version="1.0" encoding="UTF-8"?>
<svg width="170px" height="172px" viewBox="0 0 170 172" version="1.1" xmlns="http://www.w3.org/2000/svg" xmlns:xlink="http://www.w3.org/1999/xlink">
    <!-- Generator: Sketch 50.2 (55047) - http://www.bohemiancoding.com/sketch -->
    <title>Slice 1</title>
    <desc>Created with Sketch.</desc>
    <defs></defs>
    <g id="Page-1" stroke="none" stroke-width="1" fill="none" fill-rule="evenodd">
        <path d="M164.643494,123.543027 C156.20041,116.155332 145.714291,106.961055 145.714291,71.0625 C145.714291,44.7012109 123.769485,22.8286523 94.9939394,18.6580078 C96.3963333,16.8856926 97.1461297,14.7806561 97.1428464,12.625 C97.1428464,6.75701172 91.7062598,2 84.9999852,2 C78.2937107,2 72.8571241,6.75701172 72.8571241,12.625 C72.8571241,14.8662109 73.652102,16.9440625 75.006031,18.6580078 C46.2304858,22.8286523 24.2856795,44.7012109 24.2856795,71.0625 C24.2856795,106.961055 13.7961448,116.155332 5.35306163,123.543027 C-6.08741089,133.553438 2.02060517,150.75 18.2324632,150.75 L60.7142629,150.75 C60.7142629,153.709423 61.4056671,156.527557 62.6548446,159.087473 C64.3796799,162.622147 67.1679349,165.664519 70.6678251,167.906779 C74.6849925,170.48044 79.639697,172 84.9999852,172 C93.3966771,172 100.798145,168.271295 105.15967,162.603014 C107.765076,159.217003 109.285708,155.138874 109.285708,150.75 L151.764092,150.75 C167.943696,150.75 176.107113,133.573691 164.643494,123.543027 Z" id="Shape" fill="#91A5C3" fill-rule="nonzero"></path>
        <path d="M134.5,3 C117.131385,3 103,17.1301731 103,34.5 C103,51.8698269 117.131385,66 134.5,66 C151.868615,66 166,51.8698269 166,34.5 C166,17.1301731 151.868615,3 134.5,3 Z" id="Shape-Copy-3" stroke="#E7E7E7" stroke-width="5" fill="#CA372E" fill-rule="nonzero"></path>
    </g>
</svg>