<?xml version="1.0" encoding="UTF-8"?>
<svg width="189px" height="178px" viewBox="0 0 189 178" version="1.1" xmlns="http://www.w3.org/2000/svg" xmlns:xlink="http://www.w3.org/1999/xlink">
    <!-- Generator: Sketch 50.2 (55047) - http://www.bohemiancoding.com/sketch -->
    <title>Slice 1</title>
    <desc>Created with Sketch.</desc>
    <defs></defs>
    <g id="Page-1" stroke="none" stroke-width="1" fill="none" fill-rule="evenodd">
        <g id="Group" transform="translate(3.000000, 0.000000)" fill="#91A5C3" fill-rule="nonzero">
            <path d="M117.375,97.75 C144.387165,97.75 166.25,75.8871652 166.25,48.875 C166.25,21.8628348 144.387165,0 117.375,0 C90.3628348,0 68.5,21.8628348 68.5,48.875 C68.5,75.8871652 90.3628348,97.75 117.375,97.75 Z M144.4,101.75 L141.438802,101.75 C134.017969,105.708333 125.776563,106.935631 117,106.935631 C108.223438,106.935631 100.017708,105.708333 92.5611979,101.75 L89.6,101.75 C66.909375,101.75 48.5,122.175 48.5,147.35 L48.5,158.75 C48.5,169.239583 56.1705729,177.75 65.625,177.75 L168.375,177.75 C177.829427,177.75 185.5,169.239583 185.5,158.75 L185.5,147.35 C185.5,122.175 167.090625,101.75 144.4,101.75 Z" id="group_full-copy-2" transform="translate(117.000000, 88.875000) scale(-1, 1) translate(-117.000000, -88.875000) "></path>
            <g id="plus-(2)-copy-2" transform="translate(0.000000, 58.000000)" stroke="#91A5C3" stroke-width="5">
                <path d="M64.6251484,30.666678 L34.3752007,30.666678 L34.3752007,1.33332205 C34.3752007,0.596920941 33.7594851,0 33.0002095,0 C32.2407942,0 31.6252182,0.596920941 31.6252182,1.33332205 L31.6252182,30.666678 L1.37499127,30.666678 C0.615576023,30.666678 0,31.2635989 0,32 C0,32.7364011 0.615576023,33.333322 1.37499127,33.333322 L31.6250786,33.333322 L31.6250786,62.666678 C31.6250786,63.4030791 32.2406546,64 33.0000698,64 C33.7594851,64 34.3750611,63.4029436 34.3750611,62.666678 L34.3750611,33.333322 L64.6250087,33.333322 C65.384424,33.333322 66,32.7364011 66,32 C66,31.2635989 65.3845636,30.666678 64.6251484,30.666678 Z" id="Shape"></path>
            </g>
        </g>
    </g>
</svg>