<?xml version="1.0" encoding="UTF-8"?>
<svg width="136px" height="136px" viewBox="0 0 136 136" version="1.1" xmlns="http://www.w3.org/2000/svg" xmlns:xlink="http://www.w3.org/1999/xlink">
    <!-- Generator: Sketch 50.2 (55047) - http://www.bohemiancoding.com/sketch -->
    <title>Slice 1</title>
    <desc>Created with Sketch.</desc>
    <defs></defs>
    <g id="Page-1" stroke="none" stroke-width="1" fill="none" fill-rule="evenodd">
        <path d="M134.803244,121.137078 L75.1358278,4.74048751 C73.6278728,1.79877318 70.9203539,0 67.9998035,0 C65.0792531,0 62.3717342,1.79846073 60.8637792,4.74048751 L1.19689448,121.137078 C-0.354888645,124.164404 -0.400841826,127.940359 1.07709746,131.018301 C2.55503675,134.096556 5.32736824,136 8.33265312,136 L127.66722,136 C130.672504,136 133.444836,134.096244 134.922775,131.018301 C136.400714,127.940046 136.355027,124.164404 134.803244,121.137078 Z M68.0444286,50.0458336 C71.4712608,50.0458336 74.3708268,51.9687091 74.3708268,55.3769385 C74.3708268,65.7767937 73.140716,80.7217474 73.140716,91.1216027 C73.140716,93.8310129 70.153228,94.9668252 68.0444286,94.9668252 C65.2330502,94.9668252 62.8604848,93.8307487 62.8604848,91.1216027 C62.8604848,80.7217474 61.6306395,65.7767937 61.6306395,55.3769385 C61.6306395,51.9687091 64.4420179,50.0458336 68.0444286,50.0458336 Z M68.1323505,114.456349 C64.2664396,114.456349 61.366608,111.31021 61.366608,107.727077 C61.366608,104.056494 64.266174,100.997806 68.1323505,100.997806 C71.7347611,100.997806 74.8101711,104.056494 74.8101711,107.727077 C74.8101711,111.31021 71.7347611,114.456349 68.1323505,114.456349 Z" id="Shape" fill="#91A5C3" fill-rule="nonzero"></path>
    </g>
</svg>