<?xml version="1.0" encoding="UTF-8"?>
<svg width="121px" height="138px" viewBox="0 0 121 138" version="1.1" xmlns="http://www.w3.org/2000/svg" xmlns:xlink="http://www.w3.org/1999/xlink">
    <!-- Generator: Sketch 50.2 (55047) - http://www.bohemiancoding.com/sketch -->
    <title>Slice 1</title>
    <desc>Created with Sketch.</desc>
    <defs></defs>
    <g id="Page-1" stroke="none" stroke-width="1" fill="none" fill-rule="evenodd">
        <path d="M60.5,69 C79.5953125,69 95.0714286,53.5558594 95.0714286,34.5 C95.0714286,15.4441406 79.5953125,0 60.5,0 C41.4046875,0 25.9285714,15.4441406 25.9285714,34.5 C25.9285714,53.5558594 41.4046875,69 60.5,69 Z M84.7,77.625 L80.1895089,77.625 C74.1935268,80.3742187 67.5223214,81.9375 60.5,81.9375 C53.4776786,81.9375 46.8334821,80.3742187 40.8104911,77.625 L36.3,77.625 C16.259375,77.625 0,93.8507812 0,113.85 L0,125.0625 C0,132.205078 5.80691964,138 12.9642857,138 L108.035714,138 C115.19308,138 121,132.205078 121,125.0625 L121,113.85 C121,93.8507812 104.740625,77.625 84.7,77.625 Z" id="user_full" fill="#466CA4" fill-rule="nonzero"></path>
    </g>
</svg>