<?xml version="1.0" encoding="UTF-8"?>
<svg width="178px" height="179px" viewBox="0 0 178 179" version="1.1" xmlns="http://www.w3.org/2000/svg" xmlns:xlink="http://www.w3.org/1999/xlink">
    <!-- Generator: Sketch 50.2 (55047) - http://www.bohemiancoding.com/sketch -->
    <title>Slice 1</title>
    <desc>Created with Sketch.</desc>
    <defs></defs>
    <g id="Page-1" stroke="none" stroke-width="1" fill="none" fill-rule="evenodd">
        <path d="M142,85.75 C153.582812,85.75 163,76.3328125 163,64.75 C163,53.1671875 153.582812,43.75 142,43.75 C130.417188,43.75 121,53.1671875 121,64.75 C121,76.3328125 130.417188,85.75 142,85.75 Z M154.230791,91.5 L130.961583,91.5 C124.562551,91.5 118.781607,94.5785156 114.564062,99.5648437 C130.961583,108.873039 142.834915,126.191875 142.834915,147 L165.865396,147 C172.300786,147 177.5,140.799609 177.5,133.125 L177.5,119.25 C177.5,103.944141 167.065214,91.5 154.230791,91.5 Z M68.875,98.5 C95.8871652,98.5 117.75,76.6371652 117.75,49.625 C117.75,22.6128348 95.8871652,0.75 68.875,0.75 C41.8628348,0.75 20,22.6128348 20,49.625 C20,76.6371652 41.8628348,98.5 68.875,98.5 Z M95.9,102.5 L92.9388021,102.5 C85.5179687,106.458333 77.2765625,107.685631 68.5,107.685631 C59.7234375,107.685631 51.5177083,106.458333 44.0611979,102.5 L41.1,102.5 C18.409375,102.5 0,122.925 0,148.1 L0,159.5 C0,169.989583 7.67057292,178.5 17.125,178.5 L119.875,178.5 C129.329427,178.5 137,169.989583 137,159.5 L137,148.1 C137,122.925 118.590625,102.5 95.9,102.5 Z" id="group_full" fill="#91A5C3" fill-rule="nonzero"></path>
    </g>
</svg>