<?xml version="1.0" encoding="UTF-8"?>
<svg width="149px" height="170px" viewBox="0 0 149 170" version="1.1" xmlns="http://www.w3.org/2000/svg" xmlns:xlink="http://www.w3.org/1999/xlink">
    <!-- Generator: Sketch 50.2 (55047) - http://www.bohemiancoding.com/sketch -->
    <title>Slice 1</title>
    <desc>Created with Sketch.</desc>
    <defs></defs>
    <g id="Page-1" stroke="none" stroke-width="1" fill="none" fill-rule="evenodd">
        <path d="M144.30518,121.543027 C136.905066,114.155332 127.71429,104.961055 127.71429,69.0625 C127.71429,42.7012109 108.480313,20.8286523 83.259394,16.6580078 C84.488551,14.8856926 85.1457255,12.7806561 85.1428477,10.625 C85.1428477,4.75701172 80.3778394,0 74.499987,0 C68.6221347,0 63.8571264,4.75701172 63.8571264,10.625 C63.8571264,12.8662109 64.5539012,14.9440625 65.7405801,16.6580078 C40.5196611,20.8286523 21.2856838,42.7012109 21.2856838,69.0625 C21.2856838,104.961055 12.0919151,114.155332 4.69180107,121.543027 C-5.33543661,131.553438 1.771001,148.75 15.9802177,148.75 L53.2142657,148.75 C53.2142657,160.485977 62.7442823,170 74.499987,170 C86.2556918,170 95.7857084,160.485977 95.7857084,148.75 L133.016763,148.75 C147.19771,148.75 154.352705,131.573691 144.30518,121.543027 Z" id="Shape-Copy" fill="#466CA4" fill-rule="nonzero"></path>
    </g>
</svg>