<?xml version="1.0" encoding="UTF-8"?>
<svg width="290px" height="203px" viewBox="0 0 290 203" version="1.1" xmlns="http://www.w3.org/2000/svg" xmlns:xlink="http://www.w3.org/1999/xlink">
    <!-- Generator: Sketch 50.2 (55047) - http://www.bohemiancoding.com/sketch -->
    <title>Slice 1</title>
    <desc>Created with Sketch.</desc>
    <defs></defs>
    <g id="Page-1" stroke="none" stroke-width="1" fill="none" fill-rule="evenodd">
        <path d="M43.5,87 C59.4953125,87 72.5,73.9953125 72.5,58 C72.5,42.0046875 59.4953125,29 43.5,29 C27.5046875,29 14.5,42.0046875 14.5,58 C14.5,73.9953125 27.5046875,87 43.5,87 Z M246.5,87 C262.495313,87 275.5,73.9953125 275.5,58 C275.5,42.0046875 262.495313,29 246.5,29 C230.504688,29 217.5,42.0046875 217.5,58 C217.5,73.9953125 230.504688,87 246.5,87 Z M261,101.5 L232,101.5 C224.025,101.5 216.820312,104.717187 211.564062,109.928125 C229.825,119.942187 242.784375,138.021875 245.59375,159.5 L275.5,159.5 C283.520313,159.5 290,153.020312 290,145 L290,130.5 C290,114.504687 276.995313,101.5 261,101.5 Z M145,101.5 C173.048438,101.5 195.75,78.7984375 195.75,50.75 C195.75,22.7015625 173.048438,0 145,0 C116.951563,0 94.25,22.7015625 94.25,50.75 C94.25,78.7984375 116.951563,101.5 145,101.5 Z M179.8,116 L176.039062,116 C166.614062,120.53125 156.146875,123.25 145,123.25 C133.853125,123.25 123.43125,120.53125 113.960937,116 L110.2,116 C81.38125,116 58,139.38125 58,168.2 L58,181.25 C58,193.257812 67.7421875,203 79.75,203 L210.25,203 C222.257812,203 232,193.257812 232,181.25 L232,168.2 C232,139.38125 208.61875,116 179.8,116 Z M78.4359375,109.928125 C73.1796875,104.717187 65.975,101.5 58,101.5 L29,101.5 C13.0046875,101.5 0,114.504687 0,130.5 L0,145 C0,153.020312 6.4796875,159.5 14.5,159.5 L44.3609375,159.5 C47.215625,138.021875 60.175,119.942187 78.4359375,109.928125 Z" id="group_full-copy" fill="#466CA4" fill-rule="nonzero"></path>
    </g>
</svg>