<?xml version="1.0" encoding="UTF-8"?>
<svg width="136px" height="115px" viewBox="0 0 136 115" version="1.1" xmlns="http://www.w3.org/2000/svg" xmlns:xlink="http://www.w3.org/1999/xlink">
    <!-- Generator: Sketch 50.2 (55047) - http://www.bohemiancoding.com/sketch -->
    <title>Slice 1</title>
    <desc>Created with Sketch.</desc>
    <defs></defs>
    <g id="Page-1" stroke="none" stroke-width="1" fill="none" fill-rule="evenodd">
        <path d="M134.803244,102.432088 L75.1358278,4.00850047 C73.6278728,1.52102143 70.9203539,0 67.9998035,0 C65.0792531,0 62.3717342,1.52075723 60.8637792,4.00850047 L1.19689448,102.432088 C-0.354888645,104.991959 -0.400841826,108.184862 1.07709746,110.787534 C2.55503675,113.39047 5.32736824,115 8.33265312,115 L127.66722,115 C130.672504,115 133.444836,113.390206 134.922775,110.787534 C136.400714,108.184598 136.355027,104.991959 134.803244,102.432088 Z M68.0444286,34.0458336 C71.4712608,34.0458336 74.3708268,35.9687091 74.3708268,39.3769385 C74.3708268,49.7767937 73.140716,64.7217474 73.140716,75.1216027 C73.140716,77.8310129 70.153228,78.9668252 68.0444286,78.9668252 C65.2330502,78.9668252 62.8604848,77.8307487 62.8604848,75.1216027 C62.8604848,64.7217474 61.6306395,49.7767937 61.6306395,39.3769385 C61.6306395,35.9687091 64.4420179,34.0458336 68.0444286,34.0458336 Z M68.1323505,98.4563489 C64.2664396,98.4563489 61.366608,95.3102098 61.366608,91.7270774 C61.366608,88.0564937 64.266174,84.997806 68.1323505,84.997806 C71.7347611,84.997806 74.8101711,88.0564937 74.8101711,91.7270774 C74.8101711,95.3102098 71.7347611,98.4563489 68.1323505,98.4563489 Z" id="Shape" fill="#466CA4" fill-rule="nonzero"></path>
    </g>
</svg>